<svg viewBox="0 0 200 200" xmlns="http://www.w3.org/2000/svg" role="img" aria-label="Swardly">
  <path d="M 46 98 A 54 54 0 0 1 154 98"
        fill="none" stroke="#2E5C2E" stroke-width="7" stroke-linecap="round"/>
  <path d="M 100 96 C 99 84 99 74 100 62" fill="none" stroke="#2E5C2E" stroke-width="5" stroke-linecap="round"/>
  <g fill="#3E7A34">
    <path d="M 98 82 C 84 81 75 71 74 58 C 88 59 98 69 98 82 Z"/>
    <path d="M 102 74 C 116 71 125 60 126 48 C 112 50 102 61 102 74 Z"/>
  </g>
  <g fill="none" stroke="#3E7A34" stroke-linecap="round" stroke-width="5">
    <path d="M 60 122 C 79 110 121 110 140 122"/>
    <path d="M 54 134 C 77 119 123 119 146 134"/>
    <path d="M 50 147 C 75 129 125 129 150 147"/>
    <path d="M 47 160 C 74 139 126 139 153 160"/>
  </g>
</svg>
